<svg width="1282" height="580" xmlns="http://www.w3.org/2000/svg" xmlns:xlink="http://www.w3.org/1999/xlink" overflow="hidden"><defs><clipPath id="clip0"><rect x="-1" y="-1" width="1282" height="580"/></clipPath><clipPath id="clip1"><rect x="0" y="0" width="1280" height="578"/></clipPath><clipPath id="clip2"><rect x="0" y="0" width="1280" height="578"/></clipPath><clipPath id="clip3"><rect x="0" y="0" width="1280" height="748"/></clipPath><linearGradient x1="618.536" y1="0" x2="618.536" y2="705.193" gradientUnits="userSpaceOnUse" spreadMethod="pad" id="fill4"><stop offset="0" stop-color="#F79810"/><stop offset="1" stop-color="#F8310E"/></linearGradient></defs><g clip-path="url(#clip0)" transform="translate(1 1)"><g clip-path="url(#clip1)"><g clip-path="url(#clip2)"><g clip-path="url(#clip3)"><path d="M14.009 321.317C11.4281 321.317 9.37928 323.312 9.04668 326.159L0 394.874 9.04668 462.405C9.37928 465.252 11.4281 467.234 14.009 467.234 16.5102 467.234 18.5457 465.265 18.9448 462.432L18.9448 462.432 18.9448 462.418C18.9448 462.418 18.9448 462.418 18.9448 462.432L29.6678 394.874 18.9448 326.146C18.559 323.312 16.4969 321.317 14.009 321.317ZM64.8833 283.773C64.4576 280.82 62.3423 278.784 59.7347 278.784 57.1138 278.784 54.9453 280.886 54.5861 283.773 54.5861 283.8 42.4263 394.874 42.4263 394.874L54.5861 503.514C54.932 506.428 57.1005 508.53 59.7347 508.53 62.329 508.53 64.4443 506.481 64.87 503.541L78.7061 394.874 64.8833 283.773ZM256.513 181.293C251.524 181.293 247.4 185.377 247.161 190.566L237.475 394.967 247.161 527.062C247.413 532.224 251.524 536.295 256.513 536.295 261.476 536.295 265.587 532.211 265.879 527.036L265.879 527.076 276.828 394.967 265.879 190.566C265.587 185.377 261.476 181.293 256.513 181.293ZM157.332 252.336C153.501 252.336 150.374 255.396 150.068 259.48L139.159 394.914 150.068 525.945C150.361 530.002 153.501 533.062 157.332 533.062 161.124 533.062 164.25 530.002 164.583 525.945L176.982 394.914 164.583 259.453C164.25 255.396 161.124 252.336 157.332 252.336ZM357.304 536.282C363.49 536.282 368.519 531.293 368.772 524.907L378.271 395.034 368.785 122.902C368.532 116.516 363.504 111.527 357.317 111.527 351.078 111.527 346.035 116.529 345.836 122.915 345.836 122.928 337.415 395.021 337.415 395.021L345.836 524.947C346.035 531.28 351.078 536.282 357.304 536.282ZM563.648 536.894C572.163 536.894 579.187 529.883 579.347 521.262L579.347 521.355 579.347 521.262 585.972 395.114 579.347 80.8214C579.2 72.2138 572.163 65.1893 563.648 65.1893 555.12 65.1893 548.082 72.2005 547.949 80.8347L542.029 395.007C542.029 395.207 547.949 521.342 547.949 521.342 548.082 529.883 555.134 536.894 563.648 536.894ZM459.691 536.402C467.101 536.402 473.075 530.455 473.274 522.871L473.274 522.965 481.337 395.061 473.261 120.959C473.061 113.376 467.088 107.443 459.678 107.443 452.214 107.443 446.241 113.376 446.081 120.959L438.91 395.074 446.094 522.951C446.254 530.455 452.228 536.402 459.691 536.402ZM206.73 535.204C211.134 535.204 214.699 531.679 215.032 527.036L226.712 394.914 215.032 269.232C214.712 264.589 211.147 261.09 206.73 261.09 202.26 261.09 198.694 264.615 198.415 269.285L188.131 394.914 198.415 527.022C198.708 531.679 202.26 535.204 206.73 535.204ZM108.334 527.967C111.554 527.967 114.161 525.426 114.534 521.914L127.651 394.888 114.547 263.072C114.161 259.547 111.554 257.006 108.334 257.006 105.075 257.006 102.467 259.56 102.134 263.072 102.134 263.085 90.5865 394.888 90.5865 394.888L102.134 521.887C102.454 525.413 105.061 527.967 108.334 527.967ZM511.47 116.396C503.421 116.396 496.969 122.795 496.809 130.991L490.264 395.087 496.809 522.166C496.969 530.255 503.408 536.654 511.47 536.654 519.506 536.654 525.918 530.268 526.104 522.073L526.104 522.18 533.448 395.1 526.104 130.964C525.918 122.795 519.506 116.396 511.47 116.396ZM306.722 536.548C312.283 536.548 316.873 532.011 317.139 526.224L327.357 395.007 317.139 143.856C316.86 138.055 312.283 133.532 306.722 133.532 301.108 133.532 296.532 138.068 296.292 143.856 296.292 143.869 287.245 395.007 287.245 395.007L296.305 526.277C296.532 532.011 301.108 536.548 306.722 536.548ZM420.817 524.162 420.817 524.095 429.598 395.047 420.817 113.749C420.604 106.764 415.096 101.283 408.298 101.283 401.46 101.283 395.952 106.751 395.766 113.749L387.97 395.034 395.779 524.149C395.965 531.067 401.473 536.535 408.298 536.535 415.11 536.535 420.591 531.067 420.817 524.109L420.817 524.162ZM1084.92 232.899C1064.08 232.899 1044.19 237.116 1026.07 244.713 1013.96 107.576 898.961 0 758.684 0 724.36 0 690.9 6.7584 661.352 18.1865 649.871 22.63 646.811 27.2066 646.705 36.0803L646.705 519.013C646.824 528.326 654.048 536.082 663.135 537 663.521 537.04 1082.2 537.253 1084.91 537.253 1168.94 537.253 1237.07 469.124 1237.07 385.083 1237.07 301.042 1168.95 232.899 1084.92 232.899ZM615.6 35.6546C606.46 35.6546 598.957 43.158 598.824 52.3776L591.959 395.154 598.837 519.559C598.957 528.645 606.46 536.135 615.6 536.135 624.713 536.135 632.217 528.645 632.35 519.426L632.35 519.572 639.813 395.154 632.35 52.351C632.217 43.158 624.713 35.6546 615.6 35.6546ZM122.875 633.986C104.875 629.755 100.006 627.494 100.006 620.363 100.006 615.334 104.063 610.132 116.223 610.132 126.614 610.132 134.729 614.349 142.02 621.813L158.397 605.928C147.687 594.739 134.716 588.087 117.048 588.087 94.6442 588.087 76.4844 600.739 76.4844 621.347 76.4844 643.724 91.0921 650.376 112.006 655.232 133.412 660.088 137.31 663.348 137.31 670.652 137.31 679.246 130.964 682.984 117.527 682.984 106.658 682.984 96.4403 679.259 88.4845 669.986L72.1074 684.594C80.7017 697.246 97.2651 705.189 116.223 705.189 147.221 705.189 160.845 690.594 160.845 669.029 160.845 644.363 140.889 638.203 122.875 633.986ZM227.364 588.087C196.393 588.087 178.073 612.088 178.073 646.638 178.073 681.188 196.393 705.175 227.364 705.175 258.336 705.175 276.682 681.188 276.682 646.638 276.682 612.088 258.336 588.087 227.364 588.087ZM227.364 682.652C209.045 682.652 201.408 666.913 201.408 646.651 201.408 626.376 209.045 610.638 227.364 610.638 245.71 610.638 253.32 626.376 253.32 646.651 253.32 666.913 245.71 682.652 227.364 682.652ZM368.333 653.623C368.333 671.782 359.393 682.984 344.971 682.984 330.536 682.984 321.782 671.463 321.782 653.303L321.782 589.857 299.059 589.857 299.059 653.623C299.059 686.696 317.565 705.189 344.971 705.189 373.841 705.189 391.043 686.204 391.043 653.303L391.043 589.857 368.333 589.857 368.333 653.623 368.333 653.623ZM489 637.884C489 644.217 489.319 658.479 489.319 662.696 487.855 659.769 484.13 654.102 481.376 649.871L441.132 589.844 419.407 589.844 419.407 703.406 441.797 703.406 441.797 653.436C441.797 647.104 441.478 632.842 441.478 628.625 442.928 631.538 446.68 637.219 449.42 641.45L491.115 703.406 511.39 703.406 511.39 589.844 489 589.844 489 637.884 489 637.884ZM576.101 589.857 540.579 589.857 540.579 703.419 574.464 703.419C603.666 703.419 632.549 686.537 632.549 646.638 632.549 605.103 608.536 589.857 576.101 589.857ZM574.464 681.361 563.289 681.361 563.289 611.928 575.289 611.928C599.303 611.928 609.201 623.436 609.201 646.638 609.201 667.406 598.318 681.361 574.464 681.361ZM702.781 610.624C712.998 610.624 719.49 615.174 723.548 622.957L744.635 613.232C737.491 598.478 724.506 588.087 703.1 588.087 673.445 588.087 652.665 612.088 652.665 646.638 652.665 682.479 672.607 705.175 702.288 705.175 722.896 705.175 736.519 695.61 744.302 679.552L725.171 668.19C719.171 678.261 713.158 682.638 702.94 682.638 685.911 682.638 676.013 667.06 676.013 646.638 676 625.565 685.765 610.624 702.781 610.624ZM787.008 589.857 764.298 589.857 764.298 703.419 832.547 703.419 832.547 681.015 787.008 681.015 787.008 589.857ZM892.375 588.087C861.377 588.087 843.057 612.088 843.057 646.638 843.057 681.188 861.377 705.175 892.375 705.175 923.347 705.175 941.68 681.188 941.68 646.638 941.68 612.088 923.347 588.087 892.375 588.087ZM892.375 682.652C874.029 682.652 866.419 666.913 866.419 646.651 866.419 626.376 874.029 610.638 892.375 610.638 910.681 610.638 918.305 626.376 918.305 646.651 918.305 666.913 910.681 682.652 892.375 682.652ZM1033.32 653.623C1033.32 671.782 1024.42 682.984 1009.98 682.984 995.521 682.984 986.78 671.463 986.78 653.303L986.78 589.857 964.07 589.857 964.07 653.623C964.07 686.696 982.563 705.189 1009.98 705.189 1038.85 705.189 1056.04 686.204 1056.04 653.303L1056.04 589.857 1033.32 589.857 1033.32 653.623ZM1119.94 589.857 1084.43 589.857 1084.43 703.419 1118.32 703.419C1147.53 703.419 1176.39 686.537 1176.39 646.638 1176.39 605.103 1152.39 589.857 1119.94 589.857ZM1118.32 681.361 1107.13 681.361 1107.13 611.928 1119.14 611.928C1143.13 611.928 1153.03 623.436 1153.03 646.638 1153.03 667.406 1142.16 681.361 1118.32 681.361Z" fill="url(#fill4)" transform="matrix(1 0 0 1.00025 21.4665 21.161)"/></g></g></g></g></svg>